<?xml version="1.0" encoding="iso-8859-1"?>
<!-- Generator: Adobe Illustrator 19.0.0, SVG Export Plug-In . SVG Version: 6.00 Build 0)  -->
<svg version="1.1" id="Layer_1" xmlns="http://www.w3.org/2000/svg" xmlns:xlink="http://www.w3.org/1999/xlink" x="0px" y="0px"
	 viewBox="0 0 512 512" style="enable-background:new 0 0 512 512;" xml:space="preserve">
<g>
	<g>
		<polygon style="fill:#333333;" points="437.677,512 402.145,512 327.823,462.452 322.065,462.452 322.065,487.226 299.58,487.226 
			258.29,512 127.339,512 90.839,448.129 90.839,426.476 0,385.186 0,253.5 36.871,198.194 68.193,198.476 160.589,223.113 
			156.331,239.064 64.984,214.71 45.71,214.71 16.516,258.5 16.516,374.556 107.355,415.846 107.355,443.742 136.92,495.484 
			253.71,495.484 295,470.71 305.548,470.71 305.548,445.935 332.822,445.935 407.145,495.484 421.161,495.484 421.161,472.661 
			403.984,438.314 415.21,404.645 450.774,404.645 470.71,384.709 470.71,302.798 495.484,269.766 495.484,231.226 483.097,231.226 
			458.323,264.258 433.218,264.258 383.67,322.065 338.581,322.065 338.581,285.452 322.814,275.992 331.314,261.831 
			355.097,276.097 355.097,305.548 376.072,305.548 425.621,247.742 450.065,247.742 474.839,214.71 512,214.71 512,275.266 
			487.226,308.298 487.226,391.549 457.613,421.161 427.113,421.161 421.823,437.041 437.677,468.758 		"/>
	</g>
	<g>
		<path style="fill:#333333;" d="M256,355.097c-13.032,0-25.282-6.379-32.75-17.056L140.944,220.46
			c-16.573-23.669-25.331-51.452-25.331-80.347C115.613,62.855,178.468,0,255.726,0c77.807,0,140.661,62.855,140.661,140.113
			c0,28.895-8.758,56.678-25.331,80.347L288.75,338.041C281.282,348.717,269.032,355.097,256,355.097z M256.274,16.516
			c-68.701,0-124.145,55.444-124.145,123.597c0,25.492,7.725,50,22.347,70.879l82.306,117.581
			c4.387,6.266,11.572,10.008,19.217,10.008c7.645,0,14.831-3.742,19.217-10.008l82.306-117.581
			c14.622-20.879,22.347-45.387,22.347-70.879C379.871,71.96,324.427,16.516,256.274,16.516z"/>
	</g>
	<g>
		<path style="fill:#333333;" d="M256,247.742c-59.194,0-107.355-48.161-107.355-107.355S196.806,33.032,256,33.032
			s107.355,48.161,107.355,107.355S315.194,247.742,256,247.742z M256,49.548c-50.088,0-90.839,40.75-90.839,90.839
			s40.75,90.839,90.839,90.839s90.839-40.75,90.839-90.839S306.088,49.548,256,49.548z"/>
	</g>
	<g>
		<polygon style="fill:#333333;" points="222.968,503.742 206.452,503.742 206.452,399.492 153.153,338.581 8.258,338.581 
			8.258,322.065 160.653,322.065 222.968,393.282 		"/>
	</g>
	<g>
		<polygon style="fill:#333333;" points="355.097,404.645 214.71,404.645 214.71,388.129 338.581,388.129 338.581,313.806 
			355.097,313.806 		"/>
	</g>
</g>
</svg>
